<?xml version="1.0" encoding="utf-8"?>
<svg viewBox="84.699 92.537 190.637 29.69" xmlns="http://www.w3.org/2000/svg">
  <g data-v-2cb57da0="" fill="#333" class="iconlinesvg-g iconlinesvg" transform="matrix(1, 0, 0, 1, 84.698846, 68.699487)">
    <g class="tp-name1" opacity="0.8083805728368707" transform="matrix(1,0,0,1,0,23.832388543262585)">
      <g transform="translate(0, 1.6717567592743858)">
        <g>
          <g class="imagesvg">
            <g>
              <rect fill="#333" fill-opacity="0" stroke-width="2" x="0" y="0" width="23.38183965948766" height="26.35107927183841" class="image-rect"/>
              <svg x="0" y="0" width="23.38183965948766" height="26.35107927183841" filtersec="colorsb7663571929" class="image-svg-svg primary" style="overflow: visible;">
                <svg xmlns="http://www.w3.org/2000/svg" viewBox="0 -0.003000000026077032 50.92000198364258 57.38599395751953">
                  <title>资源 26</title>
                  <path fill="#213065" d="M13.6 56.83v-4.42l-4.42 4.42h4.42zM38.17.55a8.68 8.68 0 0 0-3.26.54 5.47 5.47 0 0 0-2.38 2L19.86 21.52a4.74 4.74 0 0 1-4.17 1.82H13.6V.55H.55v41.74L42.28.55zM23.323 38.05l9.284-9.284 1.096 1.097-9.284 9.284zM5.086 56.288l7.99-7.99 1.097 1.095-7.99 7.99zM21.541 35.461l8.74-8.74 1.096 1.096-8.74 8.74zM.728 56.283l12.36-12.36 1.097 1.095-12.36 12.36zM19.597 33.036L38.993 13.64l1.096 1.096-19.396 19.396zM.008 52.631l13.18-13.18 1.097 1.096-13.18 13.18zM16.043 32.214L48.26 0l1.096 1.096L17.14 33.31zM.008 48.261l13.18-13.18 1.097 1.096-13.18 13.18zM0 43.887L43.89-.003l1.096 1.096-43.89 43.89z"/>
                  <path d="M25.25 40.76l8.9 13.67a8 8 0 0 0 .81 1 4 4 0 0 0 1 .75 4.69 4.69 0 0 0 1.37.46 9.6 9.6 0 0 0 1.91.16h11.68L34.46 31.55z" fill="#d22b27"/>
                </svg>
              </svg>
            </g>
          </g>
        </g>
      </g>
      <g transform="translate(27, 0)">
        <g data-gra="path-name" fill="#d22b27" transform="scale(1)">
          <path d="M18.58 0L14.15 0L13.41-2.12L13.07-2.12Q12.33-0.95 11.02-0.32Q9.70 0.30 7.93 0.30L7.93 0.30Q5.12 0.30 3.56-1.33Q2.00-2.96 2.00-5.93L2.00-5.93L2.00-17.02L7.87-17.02L7.87-7.72Q7.87-6.05 8.34-5.20Q8.82-4.34 9.90-4.34L9.90-4.34Q11.42-4.34 12.06-5.53Q12.71-6.73 12.71-9.57L12.71-9.57L12.71-17.02L18.58-17.02L18.58 0Z" transform="translate(-1.9976635514018688, 22.304739652870495)"/>
        </g>
      </g>
      <g transform="translate(47, 0)">
        <g data-gra="path-name" fill="#d22b27" transform="scale(1)">
          <path d="M12.24 0.30L12.24 0.30Q10.95 0.30 9.93-0.13Q8.91-0.56 7.90-1.67L7.90-1.67L7.63-1.67Q7.90 0.12 7.90 0.56L7.90 0.56L7.90 7.39L2.03 7.39L2.03-17.02L6.80-17.02L7.63-14.85L7.90-14.85Q9.54-17.32 12.42-17.32L12.42-17.32Q15.25-17.32 16.85-14.97Q18.46-12.63 18.46-8.55L18.46-8.55Q18.46-4.43 16.78-2.07Q15.11 0.30 12.24 0.30ZM10.27-12.71L10.27-12.71Q8.98-12.71 8.46-11.78Q7.95-10.86 7.90-9.04L7.90-9.04L7.90-8.58Q7.90-6.38 8.49-5.41Q9.07-4.43 10.33-4.43L10.33-4.43Q11.46-4.43 11.97-5.40Q12.48-6.37 12.48-8.61L12.48-8.61Q12.48-10.80 11.97-11.75Q11.46-12.71 10.27-12.71Z" transform="translate(-2.0277036048064083, 22.304739652870495)"/>
        </g>
      </g>
      <g transform="translate(67, 0)">
        <g data-gra="path-name" fill="#213065" transform="scale(1)">
          <path d="M18.31-14.97L18.31-14.97Q18.31-11.30 16.14-9.29Q13.97-7.28 9.97-7.28L9.97-7.28L8.31-7.28L8.31 0L2.37 0L2.37-21.96L9.97-21.96Q14.13-21.96 16.22-20.14Q18.31-18.32 18.31-14.97ZM8.31-17.17L8.31-12.12L9.39-12.12Q10.72-12.12 11.51-12.87Q12.30-13.62 12.30-14.94L12.30-14.94Q12.30-17.17 9.84-17.17L9.84-17.17L8.31-17.17Z" transform="translate(-2.3731642189586113, 22.304739652870495)"/>
        </g>
      </g>
      <g transform="translate(86, 0)">
        <g data-gra="path-name" fill="#213065" transform="scale(1)">
          <path d="M22.92-11.01L22.92-11.01Q22.92-5.47 20.20-2.58Q17.48 0.30 12.24 0.30L12.24 0.30Q7.07 0.30 4.32-2.60Q1.56-5.50 1.56-11.04L1.56-11.04Q1.56-16.52 4.30-19.41Q7.04-22.30 12.27-22.30L12.27-22.30Q17.51-22.30 20.22-19.44Q22.92-16.57 22.92-11.01ZM7.81-11.01L7.81-11.01Q7.81-4.64 12.24-4.64L12.24-4.64Q14.49-4.64 15.58-6.19Q16.67-7.74 16.67-11.01L16.67-11.01Q16.67-14.30 15.57-15.87Q14.46-17.44 12.27-17.44L12.27-17.44Q7.81-17.44 7.81-11.01Z" transform="translate(-1.5620827770360481, 22.304739652870495)"/>
        </g>
      </g>
      <g transform="translate(111, 0)">
        <g data-gra="path-name" fill="#213065" transform="scale(1)">
          <path d="M0.65 6.89L0.65 6.89Q-0.98 6.89-2.43 6.58L-2.43 6.58L-2.43 1.97Q-1.95 2.06-1.41 2.17Q-0.87 2.28-0.24 2.28L-0.24 2.28Q1.23 2.28 1.86 1.40Q2.49 0.51 2.49-1.64L2.49-1.64L2.49-21.96L8.46-21.96L8.46-2.15Q8.46 2.31 6.50 4.60Q4.55 6.89 0.65 6.89Z" transform="translate(2.4332443257676903, 22.304739652870495)"/>
        </g>
      </g>
      <g transform="translate(125, 0)">
        <g data-gra="path-name" fill="#213065" transform="scale(1)">
          <path d="M22.33 0L15.85 0L14.76-4.12L7.63-4.12L6.52 0L0 0L7.16-22.05L15.08-22.05L22.33 0ZM8.86-8.98L13.53-8.98L12.59-12.59Q12.26-13.79 11.78-15.70Q11.31-17.60 11.16-18.43L11.16-18.43Q11.02-17.66 10.63-15.91Q10.23-14.15 8.86-8.98L8.86-8.98Z" transform="translate(0, 22.304739652870495)"/>
        </g>
      </g>
      <g transform="translate(151, 0)">
        <g data-gra="path-name" fill="#213065" transform="scale(1)">
          <path d="M18.02-4.79L18.02 0L0.92 0L0.92-3.66L10.42-17.17L1.14-17.17L1.14-21.96L17.78-21.96L17.78-18.31L8.28-4.79L18.02-4.79Z" transform="translate(-0.9162216288384512, 22.304739652870495)"/>
        </g>
      </g>
      <g transform="translate(172, 0)">
        <g data-gra="path-name" fill="#213065" transform="scale(1)">
          <path d="M21.01-11.45L21.01-11.45Q21.01-5.95 17.99-2.97Q14.96 0 9.48 0L9.48 0L2.37 0L2.37-21.96L9.97-21.96Q15.26-21.96 18.14-19.26Q21.01-16.55 21.01-11.45ZM14.85-11.23L14.85-11.23Q14.85-14.25 13.66-15.71Q12.47-17.17 10.03-17.17L10.03-17.17L8.31-17.17L8.31-4.87L9.63-4.87Q12.33-4.87 13.59-6.44Q14.85-8.01 14.85-11.23Z" transform="translate(-2.3731642189586117, 22.304739652870495)"/>
        </g>
      </g>
    </g>
  </g>
</svg>